<svg xmlns="http://www.w3.org/2000/svg" xmlns:xlink="http://www.w3.org/1999/xlink" viewBox="0,0,256,256" width="500px" height="500px" fill-rule="nonzero"><g fill="#fdc500" fill-rule="nonzero" stroke="none" stroke-width="1" stroke-linecap="butt" stroke-linejoin="miter" stroke-miterlimit="10" stroke-dasharray="" stroke-dashoffset="0" font-family="none" font-weight="none" font-size="none" text-anchor="none" style="mix-blend-mode: normal"><g transform="scale(5.12,5.12)"><path d="M9,4c-2.74952,0 -5,2.25048 -5,5v32c0,2.74952 2.25048,5 5,5h32c2.74952,0 5,-2.25048 5,-5v-32c0,-2.74952 -2.25048,-5 -5,-5zM9,6h32c1.66848,0 3,1.33152 3,3v32c0,1.66848 -1.33152,3 -3,3h-32c-1.66848,0 -3,-1.33152 -3,-3v-32c0,-1.66848 1.33152,-3 3,-3zM14.5,10c-1.92115,0 -3.5,1.57885 -3.5,3.5c0,1.92115 1.57885,3.5 3.5,3.5c1.92115,0 3.5,-1.57885 3.5,-3.5c0,-1.92115 -1.57885,-3.5 -3.5,-3.5zM23,10c-2.19729,0 -4,1.80271 -4,4c0,2.19729 1.80271,4 4,4c2.19729,0 4,-1.80271 4,-4c0,-2.19729 -1.80271,-4 -4,-4zM33,10c-2.74958,0 -5,2.25042 -5,5c0,2.74958 2.25042,5 5,5c2.74958,0 5,-2.25042 5,-5c0,-2.74958 -2.25042,-5 -5,-5zM14.5,12c0.84027,0 1.5,0.65973 1.5,1.5c0,0.84027 -0.65973,1.5 -1.5,1.5c-0.84027,0 -1.5,-0.65973 -1.5,-1.5c0,-0.84027 0.65973,-1.5 1.5,-1.5zM23,12c1.11641,0 2,0.88359 2,2c0,1.11641 -0.88359,2 -2,2c-1.11641,0 -2,-0.88359 -2,-2c0,-1.11641 0.88359,-2 2,-2zM33,12c1.6687,0 3,1.3313 3,3c0,1.6687 -1.3313,3 -3,3c-1.6687,0 -3,-1.3313 -3,-3c0,-1.6687 1.3313,-3 3,-3zM14,19c-2.68191,0 -5,1.94931 -5,4.5v7.5c0.00006,0.55226 0.44774,0.99994 1,1h6v1.10938v1.89063c0.00006,0.55226 0.44774,0.99994 1,1h7v3c0.00006,0.55226 0.44774,0.99994 1,1h15c0.55226,-0.00006 0.99994,-0.44774 1,-1v-9c0,-4.44506 -3.85357,-8 -8.5,-8c-1.685,0 -3.20002,0.55271 -4.52539,1.35547c-0.35292,-0.60966 -0.64877,-1.26528 -1.17383,-1.72852c-1.14456,-1.01174 -2.65705,-1.62695 -4.30078,-1.62695c-1.54686,0 -2.85749,0.67365 -3.97461,1.58203c-0.81164,-1.55093 -2.56974,-2.58203 -4.52539,-2.58203zM14,21c1.69225,0 2.93771,1.13661 2.99805,2.40039c0.02099,0.42764 0.31187,0.79449 0.72347,0.9124c0.4116,0.11792 0.8526,-0.03926 1.09684,-0.39092c0.80467,-1.16048 2.14673,-1.92187 3.68164,-1.92187c1.14767,0 2.18327,0.42535 2.97656,1.12695c0.00065,0 0.0013,0 0.00195,0c0.56303,0.49674 0.99964,1.1326 1.25781,1.85156c0.10873,0.30276 0.35646,0.53474 0.6657,0.62338c0.30925,0.08863 0.64225,0.0231 0.89484,-0.17611c1.12129,-0.88376 2.58816,-1.42578 4.20313,-1.42578c3.63757,0 6.5,2.71307 6.5,6v8h-13v-3c-0.00006,-0.55226 -0.44774,-0.99994 -1,-1h-0.03125h-6.96875v-0.89062v-2.10937c-0.00006,-0.55226 -0.44774,-0.99994 -1,-1h-6v-6.5c0,-1.31531 1.26391,-2.5 3,-2.5z"></path></g></g></svg>